<svg width="1460" height="908" viewBox="0 0 1460 908" fill="none" xmlns="http://www.w3.org/2000/svg">
<g filter="url(#filter0_d)">
<rect x="16" width="1440" height="900" fill="white"/>
<rect x="16.5" y="0.5" width="1439" height="899" stroke="black"/>
</g>
<path d="M488.093 0C287.594 770 1189.09 316.942 1189.09 0H488.093Z" fill="url(#paint0_linear)"/>
<path d="M28.7896 903.256L564.065 901.006C562.901 624.094 104 320.5 16 645C11.8302 705.987 9.04524 806.091 28.7896 903.256Z" fill="url(#paint1_linear)"/>
<path d="M532.985 0C360.797 593.831 1135 244.428 1135 0H532.985Z" fill="url(#paint2_linear)" fill-opacity="0.7"/>
<path d="M397.013 902.561C570.741 309.178 -91 629.5 11 902.561L397.013 902.561Z" fill="url(#paint3_linear)" fill-opacity="0.7"/>
<path d="M592.091 0C467.413 390.439 1028 160.71 1028 0H592.091Z" fill="url(#paint4_linear)"/>
<path d="M1456 900H1051.17C825.524 804.466 1277.4 213.306 1456 524.5L1456 900Z" fill="url(#paint5_linear)"/>
<path d="M1456 900H1112.43C920.925 817.028 1304.42 303.599 1456 573.874L1456 900Z" fill="url(#paint6_linear)"/>
<path d="M1456 900H1187.91C1038.48 839.414 1337.73 464.509 1456 661.863L1456 900Z" fill="url(#paint7_linear)" fill-opacity="0.93"/>
<defs>
<filter id="filter0_d" x="12" y="0" width="1448" height="908" filterUnits="userSpaceOnUse" color-interpolation-filters="sRGB">
<feFlood flood-opacity="0" result="BackgroundImageFix"/>
<feColorMatrix in="SourceAlpha" type="matrix" values="0 0 0 0 0 0 0 0 0 0 0 0 0 0 0 0 0 0 127 0" result="hardAlpha"/>
<feOffset dy="4"/>
<feGaussianBlur stdDeviation="2"/>
<feComposite in2="hardAlpha" operator="out"/>
<feColorMatrix type="matrix" values="0 0 0 0 0 0 0 0 0 0 0 0 0 0 0 0 0 0 0.25 0"/>
<feBlend mode="normal" in2="BackgroundImageFix" result="effect1_dropShadow"/>
<feBlend mode="normal" in="SourceGraphic" in2="effect1_dropShadow" result="shape"/>
</filter>
<linearGradient id="paint0_linear" x1="840" y1="323.5" x2="842.094" y2="-21" gradientUnits="userSpaceOnUse">
<stop offset="0.243818" stop-color="#2D6A4F"/>
<stop offset="1" stop-color="#52B788" stop-opacity="0.54"/>
</linearGradient>
<linearGradient id="paint1_linear" x1="384" y1="617.5" x2="96.7408" y2="991.453" gradientUnits="userSpaceOnUse">
<stop offset="0.243818" stop-color="#2D6A4F"/>
<stop offset="1" stop-color="#52B788" stop-opacity="0.54"/>
</linearGradient>
<linearGradient id="paint2_linear" x1="684" y1="315" x2="789.247" y2="121.862" gradientUnits="userSpaceOnUse">
<stop offset="0.243818" stop-color="#54B88A"/>
<stop offset="1" stop-color="#76D2A8"/>
</linearGradient>
<linearGradient id="paint3_linear" x1="246.816" y1="587.17" x2="141.068" y2="780.034" gradientUnits="userSpaceOnUse">
<stop offset="0.243818" stop-color="#54B88A"/>
<stop offset="1" stop-color="#76D2A8"/>
</linearGradient>
<linearGradient id="paint4_linear" x1="701.439" y1="207.11" x2="766.904" y2="74.808" gradientUnits="userSpaceOnUse">
<stop offset="0.243818" stop-color="#76D2A8" stop-opacity="0.74"/>
<stop offset="1" stop-color="#A8E3C8"/>
</linearGradient>
<linearGradient id="paint5_linear" x1="1480" y1="591.5" x2="1022.88" y2="787.736" gradientUnits="userSpaceOnUse">
<stop stop-color="#52B788" stop-opacity="0.75"/>
<stop stop-color="#4CAA7E" stop-opacity="0.966826"/>
<stop offset="0.78125" stop-color="#2D6A4F"/>
</linearGradient>
<linearGradient id="paint6_linear" x1="1159" y1="883" x2="1430" y2="545" gradientUnits="userSpaceOnUse">
<stop stop-color="#52B788" stop-opacity="0.72"/>
<stop offset="1" stop-color="#76D2A8"/>
</linearGradient>
<linearGradient id="paint7_linear" x1="1259" y1="816" x2="1456" y2="772.5" gradientUnits="userSpaceOnUse">
<stop stop-color="#78D3A9" stop-opacity="0.71"/>
<stop offset="1" stop-color="#E0E0E0"/>
</linearGradient>
</defs>
</svg>
