<svg width="496" height="649" viewBox="0 0 496 649" fill="none" xmlns="http://www.w3.org/2000/svg">
<g id="Group 3">
<g id="Rectangle 1" filter="url(#filter0_d)">
<path d="M0 30C0 13.4315 13.4315 0 30 0H466C482.569 0 496 13.4315 496 30V619C496 635.569 482.569 649 466 649H30C13.4315 649 0 635.569 0 619V30Z" fill="white"/>
</g>
<g id="Rectangle 4" filter="url(#filter1_d)">
<rect x="154.077" y="545" width="221.617" height="51" rx="25.5" fill="#FAFAFA"/>
</g>
<path id="Login" d="M211.168 94.32V62.544C211.168 62 211.408 61.6 211.888 61.344C212.4 61.056 213.008 60.912 213.712 60.912C214.416 60.912 215.008 61.056 215.488 61.344C216 61.6 216.256 62 216.256 62.544V91.488H228.736C229.216 91.488 229.584 91.712 229.84 92.16C230.128 92.608 230.272 93.136 230.272 93.744C230.272 94.352 230.128 94.88 229.84 95.328C229.584 95.776 229.216 96 228.736 96H213.424C212.816 96 212.288 95.856 211.84 95.568C211.392 95.248 211.168 94.832 211.168 94.32ZM232.134 86.832V82.416C232.134 79.888 233.11 77.68 235.062 75.792C237.014 73.904 239.35 72.96 242.07 72.96C244.726 72.96 247.046 73.904 249.03 75.792C251.014 77.648 252.006 79.856 252.006 82.416V86.832C252.006 89.328 250.998 91.552 248.982 93.504C246.998 95.424 244.694 96.384 242.07 96.384C239.414 96.384 237.094 95.424 235.11 93.504C233.126 91.584 232.134 89.36 232.134 86.832ZM237.174 86.832C237.174 88.144 237.654 89.328 238.614 90.384C239.574 91.408 240.726 91.92 242.07 91.92C243.382 91.92 244.518 91.408 245.478 90.384C246.47 89.328 246.966 88.144 246.966 86.832V82.416C246.966 81.136 246.47 79.984 245.478 78.96C244.518 77.936 243.382 77.424 242.07 77.424C240.726 77.424 239.574 77.936 238.614 78.96C237.654 79.984 237.174 81.136 237.174 82.416V86.832ZM254.709 100.176C254.709 97.936 255.941 96.224 258.405 95.04C256.901 94.4 256.149 93.344 256.149 91.872C256.149 90.464 256.949 89.248 258.549 88.224C256.661 86.752 255.717 84.736 255.717 82.176V80.832C255.717 78.528 256.533 76.64 258.165 75.168C259.829 73.696 261.989 72.96 264.645 72.96C266.885 72.96 268.741 73.504 270.213 74.592C271.141 72.448 272.181 71.376 273.333 71.376C273.941 71.376 274.437 71.568 274.821 71.952C275.205 72.304 275.397 72.688 275.397 73.104C275.397 73.616 275.125 74.016 274.581 74.304C273.557 74.752 272.757 75.392 272.181 76.224C273.205 77.504 273.717 79.04 273.717 80.832V82.176C273.717 84.48 272.869 86.384 271.173 87.888C269.477 89.392 267.301 90.144 264.645 90.144C263.397 90.144 262.293 89.952 261.333 89.568C260.725 89.984 260.421 90.432 260.421 90.912C260.421 91.552 260.917 92.016 261.909 92.304C262.933 92.592 264.149 92.816 265.557 92.976C266.997 93.136 268.421 93.376 269.829 93.696C271.269 93.984 272.485 94.624 273.477 95.616C274.501 96.608 275.013 97.92 275.013 99.552C275.013 101.952 274.053 103.76 272.133 104.976C270.245 106.192 267.845 106.8 264.933 106.8C262.021 106.8 259.589 106.192 257.637 104.976C255.685 103.792 254.709 102.192 254.709 100.176ZM259.461 99.648C259.461 100.8 259.957 101.712 260.949 102.384C261.973 103.088 263.285 103.44 264.885 103.44C266.453 103.44 267.717 103.104 268.677 102.432C269.637 101.76 270.117 100.848 270.117 99.696C270.117 98.96 269.893 98.336 269.445 97.824C268.997 97.344 268.325 96.976 267.429 96.72C266.565 96.496 265.813 96.336 265.173 96.24C264.565 96.176 263.733 96.112 262.677 96.048C260.533 96.848 259.461 98.048 259.461 99.648ZM260.613 82.128C260.613 83.536 260.981 84.688 261.717 85.584C262.453 86.48 263.461 86.928 264.741 86.928C265.989 86.928 266.981 86.496 267.717 85.632C268.453 84.736 268.821 83.584 268.821 82.176V80.832C268.821 79.488 268.453 78.384 267.717 77.52C266.981 76.624 265.973 76.176 264.693 76.176C263.445 76.176 262.453 76.624 261.717 77.52C260.981 78.384 260.613 79.488 260.613 80.832V82.128ZM278.224 64.896C278.224 64.16 278.512 63.536 279.088 63.024C279.664 62.512 280.352 62.256 281.152 62.256C281.952 62.256 282.64 62.512 283.216 63.024C283.792 63.536 284.08 64.16 284.08 64.896C284.08 65.6 283.792 66.224 283.216 66.768C282.64 67.28 281.952 67.536 281.152 67.536C280.352 67.536 279.664 67.28 279.088 66.768C278.512 66.224 278.224 65.6 278.224 64.896ZM278.656 94.32V74.88C278.656 74.4 278.88 74.016 279.328 73.728C279.808 73.408 280.416 73.248 281.152 73.248C281.888 73.248 282.496 73.408 282.976 73.728C283.456 74.016 283.696 74.4 283.696 74.88V94.32C283.696 94.736 283.44 95.12 282.928 95.472C282.448 95.824 281.856 96 281.152 96C280.448 96 279.856 95.824 279.376 95.472C278.896 95.12 278.656 94.736 278.656 94.32ZM288.968 94.32V74.88C288.968 74.4 289.192 74.016 289.64 73.728C290.12 73.408 290.728 73.248 291.464 73.248C292.104 73.248 292.632 73.408 293.048 73.728C293.496 74.016 293.72 74.4 293.72 74.88V76.608C294.232 75.584 295.048 74.72 296.168 74.016C297.32 73.312 298.648 72.96 300.152 72.96C302.424 72.96 304.376 73.888 306.008 75.744C307.672 77.6 308.504 79.824 308.504 82.416V94.32C308.504 94.832 308.248 95.248 307.736 95.568C307.256 95.856 306.664 96 305.96 96C305.32 96 304.744 95.856 304.232 95.568C303.72 95.248 303.464 94.832 303.464 94.32V82.416C303.464 81.136 302.984 79.984 302.024 78.96C301.064 77.936 299.928 77.424 298.616 77.424C297.4 77.424 296.328 77.888 295.4 78.816C294.472 79.712 294.008 80.912 294.008 82.416V94.32C294.008 94.736 293.752 95.12 293.24 95.472C292.728 95.824 292.136 96 291.464 96C290.76 96 290.168 95.824 289.688 95.472C289.208 95.12 288.968 94.736 288.968 94.32Z" fill="#263238"/>
<g id="Group 4" filter="url(#filter2_d)">
<rect id="Rectangle 2" x="148.8" y="354" width="221.617" height="51" rx="25.5" fill="#455A64"/>
<path id="Iniciar sesi&#195;&#179;n" d="M198.785 388.016V372.416C198.785 372.096 198.937 371.856 199.241 371.696C199.545 371.536 199.913 371.456 200.345 371.456C200.777 371.456 201.145 371.536 201.449 371.696C201.753 371.856 201.905 372.096 201.905 372.416V388.016C201.905 388.32 201.745 388.56 201.425 388.736C201.121 388.912 200.761 389 200.345 389C199.913 389 199.545 388.912 199.241 388.736C198.937 388.56 198.785 388.32 198.785 388.016ZM204.545 388.016V378.56C204.545 378.272 204.681 378.04 204.953 377.864C205.241 377.688 205.617 377.6 206.081 377.6C206.465 377.6 206.785 377.688 207.041 377.864C207.313 378.04 207.449 378.272 207.449 378.56V379.28C207.705 378.768 208.113 378.336 208.673 377.984C209.249 377.632 209.913 377.456 210.665 377.456C211.769 377.456 212.729 377.936 213.545 378.896C214.377 379.856 214.793 381 214.793 382.328V388.016C214.793 388.32 214.633 388.56 214.313 388.736C214.009 388.912 213.649 389 213.233 389C212.833 389 212.473 388.912 212.153 388.736C211.849 388.56 211.697 388.32 211.697 388.016V382.328C211.697 381.768 211.489 381.272 211.073 380.84C210.657 380.392 210.169 380.168 209.609 380.168C209.081 380.168 208.617 380.368 208.217 380.768C207.833 381.168 207.641 381.688 207.641 382.328V388.016C207.641 388.256 207.481 388.48 207.161 388.688C206.857 388.896 206.497 389 206.081 389C205.649 389 205.281 388.904 204.977 388.712C204.689 388.504 204.545 388.272 204.545 388.016ZM216.939 373.544C216.939 373.128 217.099 372.776 217.419 372.488C217.755 372.184 218.163 372.032 218.643 372.032C219.107 372.032 219.499 372.184 219.819 372.488C220.155 372.776 220.323 373.128 220.323 373.544C220.323 373.944 220.155 374.296 219.819 374.6C219.499 374.904 219.107 375.056 218.643 375.056C218.163 375.056 217.755 374.904 217.419 374.6C217.099 374.296 216.939 373.944 216.939 373.544ZM217.107 388.016V378.56C217.107 378.272 217.251 378.04 217.539 377.864C217.827 377.688 218.195 377.6 218.643 377.6C219.091 377.6 219.459 377.688 219.747 377.864C220.051 378.04 220.203 378.272 220.203 378.56V388.016C220.203 388.256 220.043 388.48 219.723 388.688C219.419 388.896 219.059 389 218.643 389C218.211 389 217.843 388.904 217.539 388.712C217.251 388.504 217.107 388.272 217.107 388.016ZM222.208 384.296V382.376C222.208 380.904 222.64 379.72 223.504 378.824C224.368 377.912 225.664 377.456 227.392 377.456C228.48 377.456 229.392 377.648 230.128 378.032C230.864 378.416 231.232 378.848 231.232 379.328C231.232 379.664 231.112 380 230.872 380.336C230.632 380.672 230.344 380.84 230.008 380.84C229.912 380.84 229.624 380.728 229.144 380.504C228.68 380.28 228.176 380.168 227.632 380.168C226.08 380.168 225.304 380.904 225.304 382.376V384.296C225.304 385.768 226.088 386.504 227.656 386.504C228.2 386.504 228.704 386.384 229.168 386.144C229.632 385.904 229.928 385.784 230.056 385.784C230.44 385.784 230.752 385.944 230.992 386.264C231.248 386.584 231.376 386.912 231.376 387.248C231.376 387.744 230.984 388.2 230.2 388.616C229.432 389.016 228.504 389.216 227.416 389.216C225.672 389.216 224.368 388.768 223.504 387.872C222.64 386.976 222.208 385.784 222.208 384.296ZM232.83 373.544C232.83 373.128 232.99 372.776 233.31 372.488C233.646 372.184 234.054 372.032 234.534 372.032C234.998 372.032 235.39 372.184 235.71 372.488C236.046 372.776 236.214 373.128 236.214 373.544C236.214 373.944 236.046 374.296 235.71 374.6C235.39 374.904 234.998 375.056 234.534 375.056C234.054 375.056 233.646 374.904 233.31 374.6C232.99 374.296 232.83 373.944 232.83 373.544ZM232.998 388.016V378.56C232.998 378.272 233.142 378.04 233.43 377.864C233.718 377.688 234.086 377.6 234.534 377.6C234.982 377.6 235.35 377.688 235.638 377.864C235.942 378.04 236.094 378.272 236.094 378.56V388.016C236.094 388.256 235.934 388.48 235.614 388.688C235.31 388.896 234.95 389 234.534 389C234.102 389 233.734 388.904 233.43 388.712C233.142 388.504 232.998 388.272 232.998 388.016ZM237.81 386.024C237.81 384.728 238.29 383.816 239.25 383.288C240.21 382.76 241.594 382.496 243.402 382.496H244.386V382.184C244.386 381.592 244.21 381.08 243.858 380.648C243.522 380.2 242.994 379.976 242.274 379.976C241.554 379.976 240.938 380.104 240.426 380.36C239.914 380.6 239.618 380.72 239.538 380.72C239.218 380.72 238.962 380.56 238.77 380.24C238.578 379.92 238.482 379.568 238.482 379.184C238.482 378.72 238.89 378.32 239.706 377.984C240.538 377.632 241.41 377.456 242.322 377.456C244.066 377.456 245.362 377.904 246.21 378.8C247.058 379.68 247.482 380.792 247.482 382.136V388.016C247.482 388.288 247.338 388.52 247.05 388.712C246.762 388.904 246.402 389 245.97 389C245.57 389 245.234 388.904 244.962 388.712C244.706 388.52 244.578 388.288 244.578 388.016V387.32C243.474 388.584 242.258 389.216 240.93 389.216C240.018 389.216 239.266 388.944 238.674 388.4C238.098 387.856 237.81 387.064 237.81 386.024ZM240.906 385.616C240.906 386.048 241.018 386.376 241.242 386.6C241.482 386.808 241.794 386.912 242.178 386.912C242.69 386.912 243.186 386.672 243.666 386.192C244.146 385.712 244.386 385.184 244.386 384.608V384.104H244.026C243.05 384.104 242.282 384.208 241.722 384.416C241.178 384.608 240.906 385.008 240.906 385.616ZM249.779 388.016V378.56C249.779 378.272 249.915 378.04 250.187 377.864C250.475 377.688 250.843 377.6 251.291 377.6C251.691 377.6 252.019 377.688 252.275 377.864C252.547 378.04 252.683 378.272 252.683 378.56V379.544C252.939 378.984 253.339 378.496 253.883 378.08C254.427 377.664 255.011 377.456 255.635 377.456H256.379C256.667 377.456 256.923 377.592 257.147 377.864C257.387 378.136 257.507 378.448 257.507 378.8C257.507 379.168 257.387 379.488 257.147 379.76C256.923 380.032 256.667 380.168 256.379 380.168H255.635C254.899 380.168 254.251 380.496 253.691 381.152C253.147 381.808 252.875 382.664 252.875 383.72V388.016C252.875 388.256 252.715 388.48 252.395 388.688C252.075 388.896 251.707 389 251.291 389C250.859 389 250.499 388.904 250.211 388.712C249.923 388.504 249.779 388.272 249.779 388.016ZM262.983 387.152C262.983 386.864 263.087 386.568 263.295 386.264C263.503 385.944 263.743 385.784 264.015 385.784C264.191 385.784 264.407 385.872 264.663 386.048C264.935 386.224 265.287 386.408 265.719 386.6C266.151 386.776 266.663 386.864 267.255 386.864C268.423 386.864 269.007 386.52 269.007 385.832C269.007 385.448 268.807 385.144 268.407 384.92C268.023 384.696 267.551 384.512 266.991 384.368C266.447 384.224 265.895 384.056 265.335 383.864C264.775 383.656 264.295 383.32 263.895 382.856C263.511 382.376 263.319 381.768 263.319 381.032C263.319 380.056 263.663 379.216 264.351 378.512C265.039 377.808 266.127 377.456 267.615 377.456C268.607 377.456 269.487 377.608 270.255 377.912C271.039 378.216 271.431 378.584 271.431 379.016C271.431 379.288 271.319 379.608 271.095 379.976C270.887 380.328 270.623 380.504 270.303 380.504C270.175 380.504 269.823 380.392 269.247 380.168C268.687 379.928 268.159 379.808 267.663 379.808C267.119 379.808 266.703 379.92 266.415 380.144C266.127 380.368 265.983 380.616 265.983 380.888C265.983 381.16 266.127 381.384 266.415 381.56C266.703 381.736 267.055 381.872 267.471 381.968C267.903 382.064 268.367 382.2 268.863 382.376C269.359 382.536 269.815 382.728 270.231 382.952C270.663 383.176 271.023 383.528 271.311 384.008C271.599 384.472 271.743 385.04 271.743 385.712C271.743 386.8 271.351 387.656 270.567 388.28C269.799 388.904 268.719 389.216 267.327 389.216C266.127 389.216 265.103 389.008 264.255 388.592C263.407 388.176 262.983 387.696 262.983 387.152ZM273.136 384.296V382.256C273.136 380.944 273.648 379.816 274.672 378.872C275.696 377.928 276.936 377.456 278.392 377.456C279.752 377.456 280.912 377.888 281.872 378.752C282.848 379.6 283.336 380.672 283.336 381.968C283.336 382.448 283.272 382.848 283.144 383.168C283.032 383.472 282.848 383.688 282.592 383.816C282.352 383.944 282.128 384.024 281.92 384.056C281.712 384.088 281.44 384.104 281.104 384.104H276.232V384.464C276.232 385.152 276.488 385.712 277 386.144C277.512 386.56 278.192 386.768 279.04 386.768C279.648 386.768 280.248 386.616 280.84 386.312C281.432 386.008 281.816 385.856 281.992 385.856C282.328 385.856 282.608 386.016 282.832 386.336C283.056 386.64 283.168 386.936 283.168 387.224C283.168 387.672 282.76 388.12 281.944 388.568C281.144 389 280.144 389.216 278.944 389.216C277.232 389.216 275.832 388.768 274.744 387.872C273.672 386.96 273.136 385.768 273.136 384.296ZM276.232 382.28H279.736C279.992 382.28 280.168 382.24 280.264 382.16C280.376 382.064 280.432 381.888 280.432 381.632C280.432 381.072 280.224 380.616 279.808 380.264C279.408 379.912 278.912 379.736 278.32 379.736C277.76 379.736 277.272 379.912 276.856 380.264C276.44 380.6 276.232 381.048 276.232 381.608V382.28ZM284.545 387.152C284.545 386.864 284.649 386.568 284.857 386.264C285.065 385.944 285.305 385.784 285.577 385.784C285.753 385.784 285.969 385.872 286.225 386.048C286.497 386.224 286.849 386.408 287.281 386.6C287.713 386.776 288.225 386.864 288.817 386.864C289.985 386.864 290.569 386.52 290.569 385.832C290.569 385.448 290.369 385.144 289.969 384.92C289.585 384.696 289.113 384.512 288.553 384.368C288.009 384.224 287.457 384.056 286.897 383.864C286.337 383.656 285.857 383.32 285.457 382.856C285.073 382.376 284.881 381.768 284.881 381.032C284.881 380.056 285.225 379.216 285.913 378.512C286.601 377.808 287.689 377.456 289.177 377.456C290.169 377.456 291.049 377.608 291.817 377.912C292.601 378.216 292.993 378.584 292.993 379.016C292.993 379.288 292.881 379.608 292.657 379.976C292.449 380.328 292.185 380.504 291.865 380.504C291.737 380.504 291.385 380.392 290.809 380.168C290.249 379.928 289.721 379.808 289.225 379.808C288.681 379.808 288.265 379.92 287.977 380.144C287.689 380.368 287.545 380.616 287.545 380.888C287.545 381.16 287.689 381.384 287.977 381.56C288.265 381.736 288.617 381.872 289.033 381.968C289.465 382.064 289.929 382.2 290.425 382.376C290.921 382.536 291.377 382.728 291.793 382.952C292.225 383.176 292.585 383.528 292.873 384.008C293.161 384.472 293.305 385.04 293.305 385.712C293.305 386.8 292.913 387.656 292.129 388.28C291.361 388.904 290.281 389.216 288.889 389.216C287.689 389.216 286.665 389.008 285.817 388.592C284.969 388.176 284.545 387.696 284.545 387.152ZM294.963 373.544C294.963 373.128 295.123 372.776 295.443 372.488C295.779 372.184 296.187 372.032 296.667 372.032C297.131 372.032 297.523 372.184 297.843 372.488C298.179 372.776 298.347 373.128 298.347 373.544C298.347 373.944 298.179 374.296 297.843 374.6C297.523 374.904 297.131 375.056 296.667 375.056C296.187 375.056 295.779 374.904 295.443 374.6C295.123 374.296 294.963 373.944 294.963 373.544ZM295.131 388.016V378.56C295.131 378.272 295.275 378.04 295.563 377.864C295.851 377.688 296.219 377.6 296.667 377.6C297.115 377.6 297.483 377.688 297.771 377.864C298.075 378.04 298.227 378.272 298.227 378.56V388.016C298.227 388.256 298.067 388.48 297.747 388.688C297.443 388.896 297.083 389 296.667 389C296.235 389 295.867 388.904 295.563 388.712C295.275 388.504 295.131 388.272 295.131 388.016ZM300.183 384.296V382.328C300.183 381.016 300.695 379.88 301.719 378.92C302.743 377.944 303.967 377.456 305.391 377.456C306.783 377.456 307.999 377.936 309.039 378.896C310.079 379.856 310.599 381 310.599 382.328V384.296C310.599 385.592 310.079 386.736 309.039 387.728C307.999 388.72 306.783 389.216 305.391 389.216C303.999 389.216 302.783 388.72 301.743 387.728C300.703 386.736 300.183 385.592 300.183 384.296ZM303.039 374.192C303.039 373.824 303.175 373.576 303.447 373.448L306.615 371.912C306.775 371.88 306.879 371.864 306.927 371.864C307.183 371.864 307.407 371.992 307.599 372.248C307.791 372.488 307.887 372.752 307.887 373.04C307.887 373.392 307.743 373.632 307.455 373.76L304.335 375.272C304.175 375.336 304.063 375.368 303.999 375.368C303.743 375.368 303.519 375.24 303.327 374.984C303.135 374.728 303.039 374.464 303.039 374.192ZM303.279 384.296C303.279 384.872 303.487 385.384 303.903 385.832C304.319 386.28 304.815 386.504 305.391 386.504C305.951 386.504 306.439 386.28 306.855 385.832C307.287 385.384 307.503 384.872 307.503 384.296V382.328C307.503 381.784 307.287 381.288 306.855 380.84C306.439 380.392 305.951 380.168 305.391 380.168C304.815 380.168 304.319 380.392 303.903 380.84C303.487 381.272 303.279 381.768 303.279 382.328V384.296ZM312.568 388.016V378.56C312.568 378.272 312.704 378.04 312.976 377.864C313.264 377.688 313.64 377.6 314.104 377.6C314.488 377.6 314.808 377.688 315.064 377.864C315.336 378.04 315.472 378.272 315.472 378.56V379.28C315.728 378.768 316.136 378.336 316.696 377.984C317.272 377.632 317.936 377.456 318.688 377.456C319.792 377.456 320.752 377.936 321.568 378.896C322.4 379.856 322.816 381 322.816 382.328V388.016C322.816 388.32 322.656 388.56 322.336 388.736C322.032 388.912 321.672 389 321.256 389C320.856 389 320.496 388.912 320.176 388.736C319.872 388.56 319.72 388.32 319.72 388.016V382.328C319.72 381.768 319.512 381.272 319.096 380.84C318.68 380.392 318.192 380.168 317.632 380.168C317.104 380.168 316.64 380.368 316.24 380.768C315.856 381.168 315.664 381.688 315.664 382.328V388.016C315.664 388.256 315.504 388.48 315.184 388.688C314.88 388.896 314.52 389 314.104 389C313.672 389 313.304 388.904 313 388.712C312.712 388.504 312.568 388.272 312.568 388.016Z" fill="#E6E6E6"/>
</g>
<g id="Group 1" filter="url(#filter3_i)">
<path id="&#239;&#131;&#160;" d="M117.612 185.93C115.995 187.195 113.956 188.742 106.784 193.945C105.377 195 102.776 197.32 100.315 197.32C97.7836 197.32 95.2524 195 93.7758 193.945C86.6039 188.742 84.5649 187.195 82.9477 185.93C82.6664 185.719 82.3149 185.93 82.3149 186.281V200.625C82.3149 202.523 83.7914 204 85.6899 204H114.94C116.768 204 118.315 202.523 118.315 200.625V186.281C118.315 185.93 117.893 185.719 117.612 185.93ZM100.315 195C101.932 195.07 104.252 192.961 105.448 192.117C114.799 185.367 115.502 184.734 117.612 183.047C118.034 182.766 118.315 182.273 118.315 181.711V180.375C118.315 178.547 116.768 177 114.94 177H85.6899C83.7914 177 82.3149 178.547 82.3149 180.375V181.711C82.3149 182.273 82.5258 182.766 82.9477 183.047C85.0571 184.734 85.7602 185.367 95.1118 192.117C96.3071 192.961 98.6274 195.07 100.315 195Z" fill="#91B2B5"/>
<path id="Vector 4" d="M84.4255 220.5H436.374" stroke="#B0D8DB" stroke-width="2"/>
<path id="Correo Electr&#195;&#179;nico" d="M154.233 199.644C154.401 199.404 154.593 199.284 154.809 199.284C155.025 199.284 155.253 199.392 155.493 199.608C155.757 199.8 155.889 199.992 155.889 200.184C155.889 200.376 155.817 200.556 155.673 200.724C153.657 203.148 150.885 204.36 147.357 204.36C144.237 204.36 141.693 203.328 139.725 201.264C137.757 199.176 136.773 196.452 136.773 193.092C136.773 189.732 137.757 187.008 139.725 184.92C141.693 182.808 144.165 181.752 147.141 181.752C150.141 181.752 152.637 182.328 154.629 183.48C154.989 183.672 155.169 183.924 155.169 184.236V187.332C155.169 187.572 155.073 187.776 154.881 187.944C154.689 188.088 154.461 188.16 154.197 188.16C153.933 188.16 153.705 188.088 153.513 187.944C153.321 187.776 153.225 187.572 153.225 187.332V184.668C151.449 183.852 149.493 183.444 147.357 183.444C144.789 183.444 142.701 184.344 141.093 186.144C139.509 187.92 138.717 190.224 138.717 193.056C138.717 195.888 139.509 198.204 141.093 200.004C142.701 201.78 144.873 202.668 147.609 202.668C150.369 202.668 152.577 201.66 154.233 199.644ZM165.441 202.704C166.905 202.704 168.093 202.2 169.005 201.192C169.941 200.184 170.409 198.888 170.409 197.304C170.409 195.696 169.941 194.388 169.005 193.38C168.093 192.348 166.905 191.832 165.441 191.832C163.977 191.832 162.777 192.348 161.841 193.38C160.929 194.388 160.473 195.696 160.473 197.304C160.473 198.888 160.929 200.184 161.841 201.192C162.777 202.2 163.977 202.704 165.441 202.704ZM160.437 202.38C159.165 201.036 158.529 199.332 158.529 197.268C158.529 195.204 159.177 193.512 160.473 192.192C161.769 190.848 163.425 190.176 165.441 190.176C167.457 190.176 169.101 190.848 170.373 192.192C171.669 193.512 172.317 195.216 172.317 197.304C172.317 199.368 171.669 201.06 170.373 202.38C169.101 203.7 167.445 204.36 165.405 204.36C163.389 204.36 161.733 203.7 160.437 202.38ZM174.832 190.536H176.668C178.18 190.536 178.96 191.352 179.008 192.984C180.304 191.112 181.84 190.176 183.616 190.176C184.624 190.176 185.476 190.368 186.172 190.752C186.508 190.944 186.676 191.196 186.676 191.508V194.532C186.676 194.772 186.58 194.976 186.388 195.144C186.196 195.288 185.968 195.36 185.704 195.36C185.44 195.36 185.212 195.288 185.02 195.144C184.828 194.976 184.732 194.772 184.732 194.532V192.012C184.42 191.892 183.952 191.832 183.328 191.832C182.704 191.832 181.996 192.132 181.204 192.732C180.412 193.308 179.728 194.172 179.152 195.324V203.532C179.152 203.772 179.056 203.964 178.864 204.108C178.672 204.276 178.444 204.36 178.18 204.36C177.916 204.36 177.688 204.276 177.496 204.108C177.304 203.964 177.208 203.772 177.208 203.532V192.912C177.208 192.456 176.968 192.228 176.488 192.228H174.832C174.592 192.228 174.388 192.156 174.22 192.012C174.076 191.844 174.004 191.64 174.004 191.4C174.004 191.16 174.076 190.956 174.22 190.788C174.388 190.62 174.592 190.536 174.832 190.536ZM188.367 190.536H190.203C191.715 190.536 192.495 191.352 192.543 192.984C193.839 191.112 195.375 190.176 197.151 190.176C198.159 190.176 199.011 190.368 199.707 190.752C200.043 190.944 200.211 191.196 200.211 191.508V194.532C200.211 194.772 200.115 194.976 199.923 195.144C199.731 195.288 199.503 195.36 199.239 195.36C198.975 195.36 198.747 195.288 198.555 195.144C198.363 194.976 198.267 194.772 198.267 194.532V192.012C197.955 191.892 197.487 191.832 196.863 191.832C196.239 191.832 195.531 192.132 194.739 192.732C193.947 193.308 193.263 194.172 192.687 195.324V203.532C192.687 203.772 192.591 203.964 192.399 204.108C192.207 204.276 191.979 204.36 191.715 204.36C191.451 204.36 191.223 204.276 191.031 204.108C190.839 203.964 190.743 203.772 190.743 203.532V192.912C190.743 192.456 190.503 192.228 190.023 192.228H188.367C188.127 192.228 187.923 192.156 187.755 192.012C187.611 191.844 187.539 191.64 187.539 191.4C187.539 191.16 187.611 190.956 187.755 190.788C187.923 190.62 188.127 190.536 188.367 190.536ZM213.314 196.08C213.242 194.784 212.858 193.752 212.162 192.984C211.49 192.216 210.506 191.832 209.21 191.832C207.938 191.832 206.87 192.228 206.006 193.02C205.142 193.788 204.602 194.808 204.386 196.08H213.314ZM213.386 200.544C213.554 200.256 213.746 200.112 213.962 200.112C214.178 200.112 214.394 200.172 214.61 200.292C214.826 200.388 214.97 200.556 215.042 200.796C215.138 201.012 215.126 201.216 215.006 201.408C213.782 203.376 211.838 204.36 209.174 204.36C207.062 204.36 205.394 203.688 204.17 202.344C202.97 200.976 202.37 199.26 202.37 197.196C202.37 195.132 202.994 193.452 204.242 192.156C205.49 190.836 207.134 190.176 209.174 190.176C211.214 190.176 212.726 190.788 213.71 192.012C214.718 193.236 215.222 194.868 215.222 196.908C215.222 197.46 214.91 197.736 214.286 197.736L204.314 197.772C204.41 199.26 204.89 200.46 205.754 201.372C206.642 202.26 207.782 202.704 209.174 202.704C211.046 202.704 212.45 201.984 213.386 200.544ZM225.102 202.704C226.566 202.704 227.754 202.2 228.666 201.192C229.602 200.184 230.07 198.888 230.07 197.304C230.07 195.696 229.602 194.388 228.666 193.38C227.754 192.348 226.566 191.832 225.102 191.832C223.638 191.832 222.438 192.348 221.502 193.38C220.59 194.388 220.134 195.696 220.134 197.304C220.134 198.888 220.59 200.184 221.502 201.192C222.438 202.2 223.638 202.704 225.102 202.704ZM220.098 202.38C218.826 201.036 218.19 199.332 218.19 197.268C218.19 195.204 218.838 193.512 220.134 192.192C221.43 190.848 223.086 190.176 225.102 190.176C227.118 190.176 228.762 190.848 230.034 192.192C231.33 193.512 231.978 195.216 231.978 197.304C231.978 199.368 231.33 201.06 230.034 202.38C228.762 203.7 227.106 204.36 225.066 204.36C223.05 204.36 221.394 203.7 220.098 202.38ZM242.906 182.112H259.79C260.414 182.112 260.726 182.4 260.726 182.976V185.928C260.726 186.168 260.63 186.372 260.438 186.54C260.246 186.684 260.018 186.756 259.754 186.756C259.49 186.756 259.262 186.684 259.07 186.54C258.878 186.372 258.782 186.168 258.782 185.928V183.804H246.974V192.156H257.126V190.824C257.126 190.584 257.21 190.392 257.378 190.248C257.57 190.08 257.798 189.996 258.062 189.996C258.326 189.996 258.542 190.08 258.71 190.248C258.902 190.392 258.998 190.584 258.998 190.824V195.216C258.998 195.456 258.902 195.66 258.71 195.828C258.542 195.972 258.326 196.044 258.062 196.044C257.798 196.044 257.57 195.972 257.378 195.828C257.21 195.66 257.126 195.456 257.126 195.216V193.848H246.974V202.308H259.754C260.042 202.308 260.27 202.392 260.438 202.56C260.63 202.704 260.726 202.896 260.726 203.136C260.726 203.376 260.63 203.58 260.438 203.748C260.246 203.916 260.018 204 259.754 204H245.93C245.33 204 245.03 203.736 245.03 203.208V183.804H242.906C242.666 183.804 242.462 183.732 242.294 183.588C242.15 183.42 242.078 183.216 242.078 182.976C242.078 182.736 242.15 182.532 242.294 182.364C242.462 182.196 242.666 182.112 242.906 182.112ZM267.749 202.308H269.153C269.393 202.308 269.585 202.392 269.729 202.56C269.897 202.728 269.981 202.932 269.981 203.172C269.981 203.412 269.897 203.616 269.729 203.784C269.585 203.928 269.393 204 269.153 204H267.749C265.805 204 264.833 203.22 264.833 201.66V178.692H262.457C262.217 178.692 262.025 178.62 261.881 178.476C261.713 178.308 261.629 178.104 261.629 177.864C261.629 177.624 261.713 177.42 261.881 177.252C262.025 177.084 262.217 177 262.457 177H265.805C266.069 177 266.297 177.084 266.489 177.252C266.681 177.42 266.777 177.624 266.777 177.864V201.624C266.777 202.08 267.101 202.308 267.749 202.308ZM282.818 196.08C282.746 194.784 282.362 193.752 281.666 192.984C280.994 192.216 280.01 191.832 278.714 191.832C277.442 191.832 276.374 192.228 275.51 193.02C274.646 193.788 274.106 194.808 273.89 196.08H282.818ZM282.89 200.544C283.058 200.256 283.25 200.112 283.466 200.112C283.682 200.112 283.898 200.172 284.114 200.292C284.33 200.388 284.474 200.556 284.546 200.796C284.642 201.012 284.63 201.216 284.51 201.408C283.286 203.376 281.342 204.36 278.678 204.36C276.566 204.36 274.898 203.688 273.674 202.344C272.474 200.976 271.874 199.26 271.874 197.196C271.874 195.132 272.498 193.452 273.746 192.156C274.994 190.836 276.638 190.176 278.678 190.176C280.718 190.176 282.23 190.788 283.214 192.012C284.222 193.236 284.726 194.868 284.726 196.908C284.726 197.46 284.414 197.736 283.79 197.736L273.818 197.772C273.914 199.26 274.394 200.46 275.258 201.372C276.146 202.26 277.286 202.704 278.678 202.704C280.55 202.704 281.954 201.984 282.89 200.544ZM298.674 200.544C298.866 200.256 299.058 200.112 299.25 200.112C299.466 200.112 299.682 200.16 299.898 200.256C300.234 200.4 300.402 200.604 300.402 200.868C300.402 201.108 300.366 201.288 300.294 201.408C299.07 203.376 297.126 204.36 294.462 204.36C292.422 204.36 290.79 203.676 289.566 202.308C288.342 200.916 287.73 199.212 287.73 197.196C287.73 195.18 288.366 193.512 289.638 192.192C290.934 190.848 292.53 190.176 294.426 190.176C296.346 190.176 298.014 190.62 299.43 191.508C299.718 191.7 299.862 191.928 299.862 192.192V195.216C299.862 195.456 299.766 195.66 299.574 195.828C299.382 195.972 299.154 196.044 298.89 196.044C298.626 196.044 298.398 195.972 298.206 195.828C298.014 195.66 297.918 195.456 297.918 195.216V192.66C296.958 192.108 295.806 191.832 294.462 191.832C293.118 191.832 291.978 192.336 291.042 193.344C290.106 194.352 289.638 195.66 289.638 197.268C289.638 198.852 290.082 200.16 290.97 201.192C291.882 202.2 293.046 202.704 294.462 202.704C296.334 202.704 297.738 201.984 298.674 200.544ZM313.602 201.696C313.794 201.576 314.01 201.54 314.25 201.588C314.514 201.636 314.694 201.744 314.79 201.912C314.886 202.056 314.934 202.188 314.934 202.308C314.934 202.668 314.802 202.932 314.538 203.1C313.098 203.94 311.55 204.36 309.894 204.36C308.238 204.36 307.05 204.024 306.33 203.352C305.61 202.656 305.25 201.516 305.25 199.932V192.228H303.234C302.994 192.228 302.79 192.156 302.622 192.012C302.478 191.844 302.406 191.64 302.406 191.4C302.406 191.16 302.478 190.956 302.622 190.788C302.79 190.62 302.994 190.536 303.234 190.536H305.25V185.388C305.25 185.148 305.346 184.956 305.538 184.812C305.73 184.644 305.958 184.56 306.222 184.56C306.486 184.56 306.714 184.644 306.906 184.812C307.098 184.956 307.194 185.148 307.194 185.388V190.536H313.242C313.482 190.536 313.674 190.62 313.818 190.788C313.986 190.956 314.07 191.16 314.07 191.4C314.07 191.64 313.986 191.844 313.818 192.012C313.674 192.156 313.482 192.228 313.242 192.228H307.194V199.932C307.194 200.94 307.398 201.66 307.806 202.092C308.238 202.5 309.018 202.704 310.146 202.704C311.298 202.704 312.45 202.368 313.602 201.696ZM316.371 190.536H318.207C319.719 190.536 320.499 191.352 320.547 192.984C321.843 191.112 323.379 190.176 325.155 190.176C326.163 190.176 327.015 190.368 327.711 190.752C328.047 190.944 328.215 191.196 328.215 191.508V194.532C328.215 194.772 328.119 194.976 327.927 195.144C327.735 195.288 327.507 195.36 327.243 195.36C326.979 195.36 326.751 195.288 326.559 195.144C326.367 194.976 326.271 194.772 326.271 194.532V192.012C325.959 191.892 325.491 191.832 324.867 191.832C324.243 191.832 323.535 192.132 322.743 192.732C321.951 193.308 321.267 194.172 320.691 195.324V203.532C320.691 203.772 320.595 203.964 320.403 204.108C320.211 204.276 319.983 204.36 319.719 204.36C319.455 204.36 319.227 204.276 319.035 204.108C318.843 203.964 318.747 203.772 318.747 203.532V192.912C318.747 192.456 318.507 192.228 318.027 192.228H316.371C316.131 192.228 315.927 192.156 315.759 192.012C315.615 191.844 315.543 191.64 315.543 191.4C315.543 191.16 315.615 190.956 315.759 190.788C315.927 190.62 316.131 190.536 316.371 190.536ZM342.218 197.304C342.218 195.696 341.75 194.388 340.814 193.38C339.902 192.348 338.714 191.832 337.25 191.832C335.786 191.832 334.586 192.348 333.65 193.38C332.738 194.388 332.282 195.696 332.282 197.304C332.282 198.888 332.738 200.184 333.65 201.192C334.586 202.2 335.786 202.704 337.25 202.704C338.714 202.704 339.902 202.2 340.814 201.192C341.75 200.184 342.218 198.888 342.218 197.304ZM332.246 202.38C330.974 201.036 330.338 199.332 330.338 197.268C330.338 195.204 330.986 193.512 332.282 192.192C333.578 190.848 335.234 190.176 337.25 190.176C339.266 190.176 340.91 190.848 342.182 192.192C343.478 193.512 344.126 195.216 344.126 197.304C344.126 199.368 343.478 201.06 342.182 202.38C340.91 203.7 339.254 204.36 337.214 204.36C335.198 204.36 333.542 203.7 332.246 202.38ZM337.826 184.344C338.042 184.104 338.246 183.984 338.438 183.984C338.63 183.984 338.822 184.08 339.014 184.272C339.206 184.464 339.302 184.656 339.302 184.848C339.302 185.04 339.182 185.244 338.942 185.46L336.71 187.44C336.542 187.584 336.374 187.656 336.206 187.656C336.062 187.656 335.93 187.596 335.81 187.476C335.69 187.356 335.63 187.224 335.63 187.08C335.63 186.912 335.702 186.744 335.846 186.576L337.826 184.344ZM348.332 192.228H346.64C346.4 192.228 346.196 192.156 346.028 192.012C345.884 191.844 345.812 191.64 345.812 191.4C345.812 191.16 345.884 190.956 346.028 190.788C346.196 190.62 346.4 190.536 346.64 190.536H348.584C350.072 190.536 350.816 191.352 350.816 192.984C352.256 191.112 354.068 190.176 356.252 190.176C357.548 190.176 358.604 190.512 359.42 191.184C360.26 191.832 360.68 192.792 360.68 194.064V201.624C360.68 202.08 361.004 202.308 361.652 202.308H363.056C363.296 202.308 363.488 202.392 363.632 202.56C363.8 202.728 363.884 202.932 363.884 203.172C363.884 203.412 363.8 203.616 363.632 203.784C363.488 203.928 363.296 204 363.056 204H361.652C359.708 204 358.736 203.22 358.736 201.66V194.064C358.736 193.344 358.508 192.792 358.052 192.408C357.62 192.024 357.008 191.832 356.216 191.832C354.008 191.832 352.256 192.984 350.96 195.288V203.532C350.96 203.772 350.864 203.964 350.672 204.108C350.48 204.276 350.252 204.36 349.988 204.36C349.724 204.36 349.496 204.276 349.304 204.108C349.112 203.964 349.016 203.772 349.016 203.532V192.912C349.016 192.456 348.788 192.228 348.332 192.228ZM369.277 203.532C369.277 203.772 369.181 203.964 368.989 204.108C368.797 204.276 368.569 204.36 368.305 204.36C368.041 204.36 367.813 204.276 367.621 204.108C367.429 203.964 367.333 203.772 367.333 203.532V192.228H364.957C364.717 192.228 364.513 192.156 364.345 192.012C364.201 191.844 364.129 191.64 364.129 191.4C364.129 191.16 364.201 190.956 364.345 190.788C364.513 190.62 364.717 190.536 364.957 190.536H368.449C369.001 190.536 369.277 190.812 369.277 191.364V203.532ZM367.261 185.136C367.045 184.896 366.937 184.608 366.937 184.272C366.937 183.936 367.045 183.648 367.261 183.408C367.477 183.168 367.777 183.048 368.161 183.048C368.545 183.048 368.845 183.168 369.061 183.408C369.301 183.648 369.421 183.936 369.421 184.272C369.421 184.608 369.301 184.896 369.061 185.136C368.845 185.376 368.545 185.496 368.161 185.496C367.777 185.496 367.477 185.376 367.261 185.136ZM384.138 200.544C384.33 200.256 384.522 200.112 384.714 200.112C384.93 200.112 385.146 200.16 385.362 200.256C385.698 200.4 385.866 200.604 385.866 200.868C385.866 201.108 385.83 201.288 385.758 201.408C384.534 203.376 382.59 204.36 379.926 204.36C377.886 204.36 376.254 203.676 375.03 202.308C373.806 200.916 373.194 199.212 373.194 197.196C373.194 195.18 373.83 193.512 375.102 192.192C376.398 190.848 377.994 190.176 379.89 190.176C381.81 190.176 383.478 190.62 384.894 191.508C385.182 191.7 385.326 191.928 385.326 192.192V195.216C385.326 195.456 385.23 195.66 385.038 195.828C384.846 195.972 384.618 196.044 384.354 196.044C384.09 196.044 383.862 195.972 383.67 195.828C383.478 195.66 383.382 195.456 383.382 195.216V192.66C382.422 192.108 381.27 191.832 379.926 191.832C378.582 191.832 377.442 192.336 376.506 193.344C375.57 194.352 375.102 195.66 375.102 197.268C375.102 198.852 375.546 200.16 376.434 201.192C377.346 202.2 378.51 202.704 379.926 202.704C381.798 202.704 383.202 201.984 384.138 200.544ZM395.539 202.704C397.003 202.704 398.191 202.2 399.103 201.192C400.039 200.184 400.507 198.888 400.507 197.304C400.507 195.696 400.039 194.388 399.103 193.38C398.191 192.348 397.003 191.832 395.539 191.832C394.075 191.832 392.875 192.348 391.939 193.38C391.027 194.388 390.571 195.696 390.571 197.304C390.571 198.888 391.027 200.184 391.939 201.192C392.875 202.2 394.075 202.704 395.539 202.704ZM390.535 202.38C389.263 201.036 388.627 199.332 388.627 197.268C388.627 195.204 389.275 193.512 390.571 192.192C391.867 190.848 393.523 190.176 395.539 190.176C397.555 190.176 399.199 190.848 400.471 192.192C401.767 193.512 402.415 195.216 402.415 197.304C402.415 199.368 401.767 201.06 400.471 202.38C399.199 203.7 397.543 204.36 395.503 204.36C393.487 204.36 391.831 203.7 390.535 202.38Z" fill="black" fill-opacity="0.12"/>
</g>
<g id="Group 2" filter="url(#filter4_i)">
<path id="Vector 4_2" d="M83.3702 309.5H435.319" stroke="#B0D8DB" stroke-width="2"/>
<path id="&#239;&#128;&#163;" d="M112.125 278.25H110.438V273.188C110.438 267.352 105.586 262.5 99.75 262.5C93.8438 262.5 89.0625 267.352 89.0625 273.188V278.25H87.375C85.4766 278.25 84 279.797 84 281.625V295.125C84 297.023 85.4766 298.5 87.375 298.5H112.125C113.953 298.5 115.5 297.023 115.5 295.125V281.625C115.5 279.797 113.953 278.25 112.125 278.25ZM104.812 278.25H94.6875V273.188C94.6875 270.445 96.9375 268.125 99.75 268.125C102.492 268.125 104.812 270.445 104.812 273.188V278.25Z" fill="#91B2B5"/>
<path id="**********" d="M144.578 282.468C144.578 282.228 144.662 282.036 144.83 281.892C144.998 281.724 145.202 281.64 145.442 281.64C145.682 281.64 145.874 281.724 146.018 281.892C146.186 282.036 146.27 282.228 146.27 282.468V286.608L149.834 284.556C150.002 284.484 150.182 284.448 150.374 284.448C150.59 284.448 150.758 284.556 150.878 284.772C151.022 284.988 151.094 285.156 151.094 285.276C151.094 285.612 150.962 285.864 150.698 286.032L147.134 288.048L150.662 290.028C150.974 290.22 151.13 290.412 151.13 290.604C151.13 290.796 151.07 290.976 150.95 291.144C150.782 291.48 150.59 291.648 150.374 291.648C150.182 291.648 150.002 291.6 149.834 291.504L146.27 289.488V293.592C146.27 293.832 146.186 294.036 146.018 294.204C145.874 294.348 145.682 294.42 145.442 294.42C145.202 294.42 144.998 294.348 144.83 294.204C144.662 294.036 144.578 293.832 144.578 293.592V289.524L141.014 291.54C140.846 291.636 140.654 291.684 140.438 291.684C140.222 291.684 140.054 291.564 139.934 291.324C139.814 291.06 139.754 290.832 139.754 290.64C139.754 290.448 139.898 290.256 140.186 290.064L143.714 288.048L140.15 285.996C139.838 285.828 139.682 285.648 139.682 285.456C139.682 285.24 139.742 285.036 139.862 284.844C139.982 284.652 140.15 284.532 140.366 284.484C140.582 284.412 140.786 284.436 140.978 284.556L144.578 286.608V282.468ZM159.062 282.468C159.062 282.228 159.146 282.036 159.314 281.892C159.482 281.724 159.686 281.64 159.926 281.64C160.166 281.64 160.358 281.724 160.502 281.892C160.67 282.036 160.754 282.228 160.754 282.468V286.608L164.318 284.556C164.486 284.484 164.666 284.448 164.858 284.448C165.074 284.448 165.242 284.556 165.362 284.772C165.506 284.988 165.578 285.156 165.578 285.276C165.578 285.612 165.446 285.864 165.182 286.032L161.618 288.048L165.146 290.028C165.458 290.22 165.614 290.412 165.614 290.604C165.614 290.796 165.554 290.976 165.434 291.144C165.266 291.48 165.074 291.648 164.858 291.648C164.666 291.648 164.486 291.6 164.318 291.504L160.754 289.488V293.592C160.754 293.832 160.67 294.036 160.502 294.204C160.358 294.348 160.166 294.42 159.926 294.42C159.686 294.42 159.482 294.348 159.314 294.204C159.146 294.036 159.062 293.832 159.062 293.592V289.524L155.498 291.54C155.33 291.636 155.138 291.684 154.922 291.684C154.706 291.684 154.538 291.564 154.418 291.324C154.298 291.06 154.238 290.832 154.238 290.64C154.238 290.448 154.382 290.256 154.67 290.064L158.198 288.048L154.634 285.996C154.322 285.828 154.166 285.648 154.166 285.456C154.166 285.24 154.226 285.036 154.346 284.844C154.466 284.652 154.634 284.532 154.85 284.484C155.066 284.412 155.27 284.436 155.462 284.556L159.062 286.608V282.468ZM173.546 282.468C173.546 282.228 173.63 282.036 173.798 281.892C173.966 281.724 174.17 281.64 174.41 281.64C174.65 281.64 174.842 281.724 174.986 281.892C175.154 282.036 175.238 282.228 175.238 282.468V286.608L178.802 284.556C178.97 284.484 179.15 284.448 179.342 284.448C179.558 284.448 179.726 284.556 179.846 284.772C179.99 284.988 180.062 285.156 180.062 285.276C180.062 285.612 179.93 285.864 179.666 286.032L176.102 288.048L179.63 290.028C179.942 290.22 180.098 290.412 180.098 290.604C180.098 290.796 180.038 290.976 179.918 291.144C179.75 291.48 179.558 291.648 179.342 291.648C179.15 291.648 178.97 291.6 178.802 291.504L175.238 289.488V293.592C175.238 293.832 175.154 294.036 174.986 294.204C174.842 294.348 174.65 294.42 174.41 294.42C174.17 294.42 173.966 294.348 173.798 294.204C173.63 294.036 173.546 293.832 173.546 293.592V289.524L169.982 291.54C169.814 291.636 169.622 291.684 169.406 291.684C169.19 291.684 169.022 291.564 168.902 291.324C168.782 291.06 168.722 290.832 168.722 290.64C168.722 290.448 168.866 290.256 169.154 290.064L172.682 288.048L169.118 285.996C168.806 285.828 168.65 285.648 168.65 285.456C168.65 285.24 168.71 285.036 168.83 284.844C168.95 284.652 169.118 284.532 169.334 284.484C169.55 284.412 169.754 284.436 169.946 284.556L173.546 286.608V282.468ZM188.031 282.468C188.031 282.228 188.115 282.036 188.283 281.892C188.451 281.724 188.655 281.64 188.895 281.64C189.135 281.64 189.327 281.724 189.471 281.892C189.639 282.036 189.723 282.228 189.723 282.468V286.608L193.287 284.556C193.455 284.484 193.635 284.448 193.827 284.448C194.043 284.448 194.211 284.556 194.331 284.772C194.475 284.988 194.547 285.156 194.547 285.276C194.547 285.612 194.415 285.864 194.151 286.032L190.587 288.048L194.115 290.028C194.427 290.22 194.583 290.412 194.583 290.604C194.583 290.796 194.523 290.976 194.403 291.144C194.235 291.48 194.043 291.648 193.827 291.648C193.635 291.648 193.455 291.6 193.287 291.504L189.723 289.488V293.592C189.723 293.832 189.639 294.036 189.471 294.204C189.327 294.348 189.135 294.42 188.895 294.42C188.655 294.42 188.451 294.348 188.283 294.204C188.115 294.036 188.031 293.832 188.031 293.592V289.524L184.467 291.54C184.299 291.636 184.107 291.684 183.891 291.684C183.675 291.684 183.507 291.564 183.387 291.324C183.267 291.06 183.207 290.832 183.207 290.64C183.207 290.448 183.351 290.256 183.639 290.064L187.167 288.048L183.603 285.996C183.291 285.828 183.135 285.648 183.135 285.456C183.135 285.24 183.195 285.036 183.315 284.844C183.435 284.652 183.603 284.532 183.819 284.484C184.035 284.412 184.239 284.436 184.431 284.556L188.031 286.608V282.468ZM202.515 282.468C202.515 282.228 202.599 282.036 202.767 281.892C202.935 281.724 203.139 281.64 203.379 281.64C203.619 281.64 203.811 281.724 203.955 281.892C204.123 282.036 204.207 282.228 204.207 282.468V286.608L207.771 284.556C207.939 284.484 208.119 284.448 208.311 284.448C208.527 284.448 208.695 284.556 208.815 284.772C208.959 284.988 209.031 285.156 209.031 285.276C209.031 285.612 208.899 285.864 208.635 286.032L205.071 288.048L208.599 290.028C208.911 290.22 209.067 290.412 209.067 290.604C209.067 290.796 209.007 290.976 208.887 291.144C208.719 291.48 208.527 291.648 208.311 291.648C208.119 291.648 207.939 291.6 207.771 291.504L204.207 289.488V293.592C204.207 293.832 204.123 294.036 203.955 294.204C203.811 294.348 203.619 294.42 203.379 294.42C203.139 294.42 202.935 294.348 202.767 294.204C202.599 294.036 202.515 293.832 202.515 293.592V289.524L198.951 291.54C198.783 291.636 198.591 291.684 198.375 291.684C198.159 291.684 197.991 291.564 197.871 291.324C197.751 291.06 197.691 290.832 197.691 290.64C197.691 290.448 197.835 290.256 198.123 290.064L201.651 288.048L198.087 285.996C197.775 285.828 197.619 285.648 197.619 285.456C197.619 285.24 197.679 285.036 197.799 284.844C197.919 284.652 198.087 284.532 198.303 284.484C198.519 284.412 198.723 284.436 198.915 284.556L202.515 286.608V282.468ZM216.999 282.468C216.999 282.228 217.083 282.036 217.251 281.892C217.419 281.724 217.623 281.64 217.863 281.64C218.103 281.64 218.295 281.724 218.439 281.892C218.607 282.036 218.691 282.228 218.691 282.468V286.608L222.255 284.556C222.423 284.484 222.603 284.448 222.795 284.448C223.011 284.448 223.179 284.556 223.299 284.772C223.443 284.988 223.515 285.156 223.515 285.276C223.515 285.612 223.383 285.864 223.119 286.032L219.555 288.048L223.083 290.028C223.395 290.22 223.551 290.412 223.551 290.604C223.551 290.796 223.491 290.976 223.371 291.144C223.203 291.48 223.011 291.648 222.795 291.648C222.603 291.648 222.423 291.6 222.255 291.504L218.691 289.488V293.592C218.691 293.832 218.607 294.036 218.439 294.204C218.295 294.348 218.103 294.42 217.863 294.42C217.623 294.42 217.419 294.348 217.251 294.204C217.083 294.036 216.999 293.832 216.999 293.592V289.524L213.435 291.54C213.267 291.636 213.075 291.684 212.859 291.684C212.643 291.684 212.475 291.564 212.355 291.324C212.235 291.06 212.175 290.832 212.175 290.64C212.175 290.448 212.319 290.256 212.607 290.064L216.135 288.048L212.571 285.996C212.259 285.828 212.103 285.648 212.103 285.456C212.103 285.24 212.163 285.036 212.283 284.844C212.403 284.652 212.571 284.532 212.787 284.484C213.003 284.412 213.207 284.436 213.399 284.556L216.999 286.608V282.468ZM231.484 282.468C231.484 282.228 231.568 282.036 231.736 281.892C231.904 281.724 232.108 281.64 232.348 281.64C232.588 281.64 232.78 281.724 232.924 281.892C233.092 282.036 233.176 282.228 233.176 282.468V286.608L236.74 284.556C236.908 284.484 237.088 284.448 237.28 284.448C237.496 284.448 237.664 284.556 237.784 284.772C237.928 284.988 238 285.156 238 285.276C238 285.612 237.868 285.864 237.604 286.032L234.04 288.048L237.568 290.028C237.88 290.22 238.036 290.412 238.036 290.604C238.036 290.796 237.976 290.976 237.856 291.144C237.688 291.48 237.496 291.648 237.28 291.648C237.088 291.648 236.908 291.6 236.74 291.504L233.176 289.488V293.592C233.176 293.832 233.092 294.036 232.924 294.204C232.78 294.348 232.588 294.42 232.348 294.42C232.108 294.42 231.904 294.348 231.736 294.204C231.568 294.036 231.484 293.832 231.484 293.592V289.524L227.92 291.54C227.752 291.636 227.56 291.684 227.344 291.684C227.128 291.684 226.96 291.564 226.84 291.324C226.72 291.06 226.66 290.832 226.66 290.64C226.66 290.448 226.804 290.256 227.092 290.064L230.62 288.048L227.056 285.996C226.744 285.828 226.588 285.648 226.588 285.456C226.588 285.24 226.648 285.036 226.768 284.844C226.888 284.652 227.056 284.532 227.272 284.484C227.488 284.412 227.692 284.436 227.884 284.556L231.484 286.608V282.468ZM245.968 282.468C245.968 282.228 246.052 282.036 246.22 281.892C246.388 281.724 246.592 281.64 246.832 281.64C247.072 281.64 247.264 281.724 247.408 281.892C247.576 282.036 247.66 282.228 247.66 282.468V286.608L251.224 284.556C251.392 284.484 251.572 284.448 251.764 284.448C251.98 284.448 252.148 284.556 252.268 284.772C252.412 284.988 252.484 285.156 252.484 285.276C252.484 285.612 252.352 285.864 252.088 286.032L248.524 288.048L252.052 290.028C252.364 290.22 252.52 290.412 252.52 290.604C252.52 290.796 252.46 290.976 252.34 291.144C252.172 291.48 251.98 291.648 251.764 291.648C251.572 291.648 251.392 291.6 251.224 291.504L247.66 289.488V293.592C247.66 293.832 247.576 294.036 247.408 294.204C247.264 294.348 247.072 294.42 246.832 294.42C246.592 294.42 246.388 294.348 246.22 294.204C246.052 294.036 245.968 293.832 245.968 293.592V289.524L242.404 291.54C242.236 291.636 242.044 291.684 241.828 291.684C241.612 291.684 241.444 291.564 241.324 291.324C241.204 291.06 241.144 290.832 241.144 290.64C241.144 290.448 241.288 290.256 241.576 290.064L245.104 288.048L241.54 285.996C241.228 285.828 241.072 285.648 241.072 285.456C241.072 285.24 241.132 285.036 241.252 284.844C241.372 284.652 241.54 284.532 241.756 284.484C241.972 284.412 242.176 284.436 242.368 284.556L245.968 286.608V282.468ZM260.453 282.468C260.453 282.228 260.537 282.036 260.705 281.892C260.873 281.724 261.077 281.64 261.317 281.64C261.557 281.64 261.749 281.724 261.893 281.892C262.061 282.036 262.145 282.228 262.145 282.468V286.608L265.709 284.556C265.877 284.484 266.057 284.448 266.249 284.448C266.465 284.448 266.633 284.556 266.753 284.772C266.897 284.988 266.969 285.156 266.969 285.276C266.969 285.612 266.837 285.864 266.573 286.032L263.009 288.048L266.537 290.028C266.849 290.22 267.005 290.412 267.005 290.604C267.005 290.796 266.945 290.976 266.825 291.144C266.657 291.48 266.465 291.648 266.249 291.648C266.057 291.648 265.877 291.6 265.709 291.504L262.145 289.488V293.592C262.145 293.832 262.061 294.036 261.893 294.204C261.749 294.348 261.557 294.42 261.317 294.42C261.077 294.42 260.873 294.348 260.705 294.204C260.537 294.036 260.453 293.832 260.453 293.592V289.524L256.889 291.54C256.721 291.636 256.529 291.684 256.313 291.684C256.097 291.684 255.929 291.564 255.809 291.324C255.689 291.06 255.629 290.832 255.629 290.64C255.629 290.448 255.773 290.256 256.061 290.064L259.589 288.048L256.025 285.996C255.713 285.828 255.557 285.648 255.557 285.456C255.557 285.24 255.617 285.036 255.737 284.844C255.857 284.652 256.025 284.532 256.241 284.484C256.457 284.412 256.661 284.436 256.853 284.556L260.453 286.608V282.468ZM274.937 282.468C274.937 282.228 275.021 282.036 275.189 281.892C275.357 281.724 275.561 281.64 275.801 281.64C276.041 281.64 276.233 281.724 276.377 281.892C276.545 282.036 276.629 282.228 276.629 282.468V286.608L280.193 284.556C280.361 284.484 280.541 284.448 280.733 284.448C280.949 284.448 281.117 284.556 281.237 284.772C281.381 284.988 281.453 285.156 281.453 285.276C281.453 285.612 281.321 285.864 281.057 286.032L277.493 288.048L281.021 290.028C281.333 290.22 281.489 290.412 281.489 290.604C281.489 290.796 281.429 290.976 281.309 291.144C281.141 291.48 280.949 291.648 280.733 291.648C280.541 291.648 280.361 291.6 280.193 291.504L276.629 289.488V293.592C276.629 293.832 276.545 294.036 276.377 294.204C276.233 294.348 276.041 294.42 275.801 294.42C275.561 294.42 275.357 294.348 275.189 294.204C275.021 294.036 274.937 293.832 274.937 293.592V289.524L271.373 291.54C271.205 291.636 271.013 291.684 270.797 291.684C270.581 291.684 270.413 291.564 270.293 291.324C270.173 291.06 270.113 290.832 270.113 290.64C270.113 290.448 270.257 290.256 270.545 290.064L274.073 288.048L270.509 285.996C270.197 285.828 270.041 285.648 270.041 285.456C270.041 285.24 270.101 285.036 270.221 284.844C270.341 284.652 270.509 284.532 270.725 284.484C270.941 284.412 271.145 284.436 271.337 284.556L274.937 286.608V282.468Z" fill="black" fill-opacity="0.21"/>
</g>
<path id="Facebook" d="M239.895 563.536H238.479C238.319 563.536 238.183 563.488 238.071 563.392C237.975 563.28 237.927 563.144 237.927 562.984C237.927 562.824 237.975 562.688 238.071 562.576C238.183 562.464 238.319 562.408 238.479 562.408H249.087C249.503 562.408 249.711 562.6 249.711 562.984V564.952C249.711 565.112 249.647 565.248 249.519 565.36C249.391 565.456 249.239 565.504 249.063 565.504C248.887 565.504 248.735 565.456 248.607 565.36C248.479 565.248 248.415 565.112 248.415 564.952V563.536H241.191V569.104H247.263V568.216C247.263 568.056 247.319 567.928 247.431 567.832C247.559 567.72 247.711 567.664 247.887 567.664C248.063 567.664 248.207 567.72 248.319 567.832C248.447 567.928 248.511 568.056 248.511 568.216V571.144C248.511 571.304 248.447 571.44 248.319 571.552C248.207 571.648 248.063 571.696 247.887 571.696C247.711 571.696 247.559 571.648 247.431 571.552C247.319 571.44 247.263 571.304 247.263 571.144V570.232H241.191V576.688C241.191 576.848 241.127 576.976 240.999 577.072C240.871 577.184 240.719 577.24 240.543 577.24C240.367 577.24 240.215 577.184 240.087 577.072C239.959 576.976 239.895 576.848 239.895 576.688V563.536ZM257.147 573.28C256.091 572.992 255.187 572.848 254.435 572.848C253.699 572.848 253.091 572.992 252.611 573.28C252.147 573.568 251.915 573.976 251.915 574.504C251.915 575.016 252.067 575.416 252.371 575.704C252.675 575.992 253.091 576.136 253.619 576.136C255.091 576.136 256.267 575.336 257.147 573.736V573.28ZM259.067 575.872H260.003C260.163 575.872 260.291 575.928 260.387 576.04C260.499 576.152 260.555 576.288 260.555 576.448C260.555 576.608 260.499 576.744 260.387 576.856C260.291 576.952 260.163 577 260.003 577H258.947C258.371 577 257.923 576.872 257.603 576.616C257.299 576.36 257.147 576 257.147 575.536C257.147 575.456 257.155 575.368 257.171 575.272C256.323 576.584 255.091 577.24 253.475 577.24C252.579 577.24 251.875 577 251.363 576.52C250.867 576.04 250.619 575.376 250.619 574.528C250.619 573.664 250.955 572.992 251.627 572.512C252.315 572.016 253.163 571.768 254.171 571.768C255.195 571.768 256.187 571.936 257.147 572.272V570.616C257.147 569.848 256.867 569.352 256.307 569.128C255.875 568.968 255.275 568.888 254.507 568.888C253.755 568.888 253.059 569.016 252.419 569.272V570.784C252.419 570.944 252.355 571.08 252.227 571.192C252.099 571.288 251.947 571.336 251.771 571.336C251.595 571.336 251.443 571.288 251.315 571.192C251.187 571.08 251.123 570.944 251.123 570.784V568.96C251.123 568.752 251.227 568.592 251.435 568.48C252.219 568.016 253.259 567.784 254.555 567.784C255.851 567.784 256.819 568 257.459 568.432C258.099 568.848 258.419 569.576 258.419 570.616V575.416C258.419 575.72 258.635 575.872 259.067 575.872ZM268.72 574.696C268.848 574.504 268.976 574.408 269.104 574.408C269.248 574.408 269.392 574.44 269.536 574.504C269.76 574.6 269.872 574.736 269.872 574.912C269.872 575.072 269.848 575.192 269.8 575.272C268.984 576.584 267.688 577.24 265.912 577.24C264.552 577.24 263.464 576.784 262.648 575.872C261.832 574.944 261.424 573.808 261.424 572.464C261.424 571.12 261.848 570.008 262.696 569.128C263.56 568.232 264.624 567.784 265.888 567.784C267.168 567.784 268.28 568.08 269.224 568.672C269.416 568.8 269.512 568.952 269.512 569.128V571.144C269.512 571.304 269.448 571.44 269.32 571.552C269.192 571.648 269.04 571.696 268.864 571.696C268.688 571.696 268.536 571.648 268.408 571.552C268.28 571.44 268.216 571.304 268.216 571.144V569.44C267.576 569.072 266.808 568.888 265.912 568.888C265.016 568.888 264.256 569.224 263.632 569.896C263.008 570.568 262.696 571.44 262.696 572.512C262.696 573.568 262.992 574.44 263.584 575.128C264.192 575.8 264.968 576.136 265.912 576.136C267.16 576.136 268.096 575.656 268.72 574.696ZM279.032 571.72C278.984 570.856 278.728 570.168 278.264 569.656C277.816 569.144 277.16 568.888 276.296 568.888C275.448 568.888 274.736 569.152 274.16 569.68C273.584 570.192 273.224 570.872 273.08 571.72H279.032ZM279.08 574.696C279.192 574.504 279.32 574.408 279.464 574.408C279.608 574.408 279.752 574.448 279.896 574.528C280.04 574.592 280.136 574.704 280.184 574.864C280.248 575.008 280.24 575.144 280.16 575.272C279.344 576.584 278.048 577.24 276.272 577.24C274.864 577.24 273.752 576.792 272.936 575.896C272.136 574.984 271.736 573.84 271.736 572.464C271.736 571.088 272.152 569.968 272.984 569.104C273.816 568.224 274.912 567.784 276.272 567.784C277.632 567.784 278.64 568.192 279.296 569.008C279.968 569.824 280.304 570.912 280.304 572.272C280.304 572.64 280.096 572.824 279.68 572.824L273.032 572.848C273.096 573.84 273.416 574.64 273.992 575.248C274.584 575.84 275.344 576.136 276.272 576.136C277.52 576.136 278.456 575.656 279.08 574.696ZM284.202 574.696C285.258 575.656 286.282 576.136 287.274 576.136C288.282 576.136 289.058 575.8 289.602 575.128C290.146 574.456 290.418 573.568 290.418 572.464C290.418 571.36 290.146 570.488 289.602 569.848C289.074 569.208 288.346 568.888 287.418 568.888C286.106 568.888 285.034 569.632 284.202 571.12V574.696ZM282.906 560.128H281.322C281.162 560.128 281.034 560.08 280.938 559.984C280.826 559.872 280.77 559.736 280.77 559.576C280.77 559.416 280.826 559.28 280.938 559.168C281.034 559.056 281.162 559 281.322 559H283.554C283.714 559 283.858 559.056 283.986 559.168C284.13 559.28 284.202 559.416 284.202 559.576V569.608C285.018 568.392 286.106 567.784 287.466 567.784C288.826 567.784 289.866 568.216 290.586 569.08C291.322 569.944 291.69 571.08 291.69 572.488C291.69 573.896 291.314 575.04 290.562 575.92C289.81 576.8 288.81 577.24 287.562 577.24C286.314 577.24 285.194 576.784 284.202 575.872V576.688C284.202 576.848 284.138 576.976 284.01 577.072C283.882 577.184 283.73 577.24 283.554 577.24C283.378 577.24 283.226 577.184 283.098 577.072C282.97 576.976 282.906 576.848 282.906 576.688V560.128ZM298.304 576.136C299.28 576.136 300.072 575.8 300.68 575.128C301.304 574.456 301.616 573.592 301.616 572.536C301.616 571.464 301.304 570.592 300.68 569.92C300.072 569.232 299.28 568.888 298.304 568.888C297.328 568.888 296.528 569.232 295.904 569.92C295.296 570.592 294.992 571.464 294.992 572.536C294.992 573.592 295.296 574.456 295.904 575.128C296.528 575.8 297.328 576.136 298.304 576.136ZM294.968 575.92C294.12 575.024 293.696 573.888 293.696 572.512C293.696 571.136 294.128 570.008 294.992 569.128C295.856 568.232 296.96 567.784 298.304 567.784C299.648 567.784 300.744 568.232 301.592 569.128C302.456 570.008 302.888 571.144 302.888 572.536C302.888 573.912 302.456 575.04 301.592 575.92C300.744 576.8 299.64 577.24 298.28 577.24C296.936 577.24 295.832 576.8 294.968 575.92ZM309.461 576.136C310.437 576.136 311.229 575.8 311.837 575.128C312.461 574.456 312.773 573.592 312.773 572.536C312.773 571.464 312.461 570.592 311.837 569.92C311.229 569.232 310.437 568.888 309.461 568.888C308.485 568.888 307.685 569.232 307.061 569.92C306.453 570.592 306.149 571.464 306.149 572.536C306.149 573.592 306.453 574.456 307.061 575.128C307.685 575.8 308.485 576.136 309.461 576.136ZM306.125 575.92C305.277 575.024 304.853 573.888 304.853 572.512C304.853 571.136 305.285 570.008 306.149 569.128C307.013 568.232 308.117 567.784 309.461 567.784C310.805 567.784 311.901 568.232 312.749 569.128C313.613 570.008 314.045 571.144 314.045 572.536C314.045 573.912 313.613 575.04 312.749 575.92C311.901 576.8 310.797 577.24 309.437 577.24C308.093 577.24 306.989 576.8 306.125 575.92ZM317.929 571.912C318.633 572.024 319.353 572.08 320.089 572.08C320.825 572.08 321.505 571.936 322.129 571.648C322.769 571.344 323.089 570.864 323.089 570.208C323.089 569.296 322.537 568.84 321.433 568.84C319.945 568.84 318.777 569.624 317.929 571.192V571.912ZM324.721 576.136C324.881 576.136 325.009 576.192 325.105 576.304C325.217 576.4 325.273 576.528 325.273 576.688C325.273 576.848 325.217 576.976 325.105 577.072C325.009 577.184 324.881 577.24 324.721 577.24C323.297 577.24 321.993 576.856 320.809 576.088C319.641 575.304 318.681 574.328 317.929 573.16V576.688C317.929 576.848 317.865 576.976 317.737 577.072C317.609 577.184 317.457 577.24 317.281 577.24C317.105 577.24 316.953 577.184 316.825 577.072C316.697 576.976 316.633 576.848 316.633 576.688V560.128H315.049C314.889 560.128 314.761 560.08 314.665 559.984C314.553 559.872 314.497 559.736 314.497 559.576C314.497 559.416 314.553 559.28 314.665 559.168C314.761 559.056 314.889 559 315.049 559H317.281C317.441 559 317.585 559.056 317.713 559.168C317.857 559.28 317.929 559.416 317.929 559.576V569.632C318.857 568.368 320.025 567.736 321.433 567.736C322.345 567.736 323.065 567.952 323.593 568.384C324.121 568.8 324.385 569.384 324.385 570.136C324.385 570.888 324.145 571.496 323.665 571.96C322.881 572.712 321.777 573.088 320.353 573.088C319.825 573.088 319.353 573.032 318.937 572.92C319.625 573.832 320.489 574.6 321.529 575.224C322.585 575.832 323.649 576.136 324.721 576.136Z" fill="black"/>
<g id="Rectangle 3" filter="url(#filter5_d)">
<rect x="154.077" y="466" width="221.617" height="51" rx="25.5" fill="#FAFAFA"/>
</g>
<path id="Google" d="M249.831 497.688V496.728C248.599 497.736 247.175 498.24 245.559 498.24C243.479 498.24 241.791 497.52 240.495 496.08C239.199 494.624 238.551 492.8 238.551 490.608C238.551 488.4 239.215 486.608 240.543 485.232C241.887 483.856 243.527 483.168 245.463 483.168C247.399 483.168 249.063 483.56 250.455 484.344C250.711 484.472 250.839 484.64 250.839 484.848V486.912C250.839 487.072 250.775 487.208 250.647 487.32C250.519 487.416 250.367 487.464 250.191 487.464C250.015 487.464 249.863 487.416 249.735 487.32C249.607 487.208 249.543 487.072 249.543 486.912V485.16C248.343 484.584 247.039 484.296 245.631 484.296C243.903 484.296 242.503 484.888 241.431 486.072C240.375 487.24 239.847 488.768 239.847 490.656C239.847 492.544 240.383 494.096 241.455 495.312C242.527 496.512 243.887 497.112 245.535 497.112C247.183 497.112 248.615 496.592 249.831 495.552V491.952H246.231C246.071 491.952 245.935 491.904 245.823 491.808C245.727 491.696 245.679 491.56 245.679 491.4C245.679 491.24 245.727 491.104 245.823 490.992C245.935 490.88 246.071 490.824 246.231 490.824H250.503C250.919 490.824 251.127 491.008 251.127 491.376V497.688C251.127 497.848 251.063 497.976 250.935 498.072C250.807 498.184 250.655 498.24 250.479 498.24C250.303 498.24 250.151 498.184 250.023 498.072C249.895 497.976 249.831 497.848 249.831 497.688ZM258.133 497.136C259.109 497.136 259.901 496.8 260.509 496.128C261.133 495.456 261.445 494.592 261.445 493.536C261.445 492.464 261.133 491.592 260.509 490.92C259.901 490.232 259.109 489.888 258.133 489.888C257.157 489.888 256.357 490.232 255.733 490.92C255.125 491.592 254.821 492.464 254.821 493.536C254.821 494.592 255.125 495.456 255.733 496.128C256.357 496.8 257.157 497.136 258.133 497.136ZM254.797 496.92C253.949 496.024 253.525 494.888 253.525 493.512C253.525 492.136 253.957 491.008 254.821 490.128C255.685 489.232 256.789 488.784 258.133 488.784C259.477 488.784 260.573 489.232 261.421 490.128C262.285 491.008 262.717 492.144 262.717 493.536C262.717 494.912 262.285 496.04 261.421 496.92C260.573 497.8 259.469 498.24 258.109 498.24C256.765 498.24 255.661 497.8 254.797 496.92ZM269.289 497.136C270.265 497.136 271.057 496.8 271.665 496.128C272.289 495.456 272.601 494.592 272.601 493.536C272.601 492.464 272.289 491.592 271.665 490.92C271.057 490.232 270.265 489.888 269.289 489.888C268.313 489.888 267.513 490.232 266.889 490.92C266.281 491.592 265.977 492.464 265.977 493.536C265.977 494.592 266.281 495.456 266.889 496.128C267.513 496.8 268.313 497.136 269.289 497.136ZM265.953 496.92C265.105 496.024 264.681 494.888 264.681 493.512C264.681 492.136 265.113 491.008 265.977 490.128C266.841 489.232 267.945 488.784 269.289 488.784C270.633 488.784 271.729 489.232 272.577 490.128C273.441 491.008 273.873 492.144 273.873 493.536C273.873 494.912 273.441 496.04 272.577 496.92C271.729 497.8 270.625 498.24 269.265 498.24C267.921 498.24 266.817 497.8 265.953 496.92ZM277.397 498.264C276.789 498.616 276.485 499.136 276.485 499.824C276.485 500.528 276.773 501.08 277.349 501.48C277.941 501.88 278.749 502.08 279.773 502.08C280.797 502.08 281.717 501.904 282.533 501.552C283.349 501.2 283.757 500.72 283.757 500.112C283.757 499.456 283.181 499.064 282.029 498.936C281.629 498.904 280.357 498.744 278.213 498.456C277.861 498.392 277.589 498.328 277.397 498.264ZM282.509 492.216C282.509 491.512 282.269 490.944 281.789 490.512C281.325 490.064 280.717 489.84 279.965 489.84C279.229 489.84 278.621 490.064 278.141 490.512C277.677 490.944 277.445 491.512 277.445 492.216C277.445 492.92 277.677 493.496 278.141 493.944C278.621 494.376 279.229 494.592 279.965 494.592C280.717 494.592 281.325 494.376 281.789 493.944C282.269 493.496 282.509 492.92 282.509 492.216ZM283.229 485.664C283.485 485.664 283.661 485.8 283.757 486.072C283.981 486.632 284.093 487.136 284.093 487.584C284.093 488.512 283.709 489.296 282.941 489.936C283.517 490.528 283.805 491.32 283.805 492.312C283.805 493.304 283.429 494.12 282.677 494.76C281.941 495.384 281.037 495.696 279.965 495.696C279.485 495.696 279.029 495.632 278.597 495.504C278.229 495.616 277.901 495.792 277.613 496.032C277.341 496.256 277.205 496.48 277.205 496.704C277.205 497.008 277.605 497.232 278.405 497.376C278.757 497.424 280.029 497.576 282.221 497.832C284.109 498.072 285.053 498.832 285.053 500.112C285.053 501.104 284.485 501.864 283.349 502.392C282.229 502.92 281.029 503.184 279.749 503.184C278.485 503.184 277.405 502.904 276.509 502.344C275.629 501.8 275.189 501.032 275.189 500.04C275.189 499.048 275.613 498.296 276.461 497.784C276.109 497.576 275.933 497.216 275.933 496.704C275.933 496 276.485 495.432 277.589 495C276.645 494.28 276.173 493.384 276.173 492.312C276.173 491.224 276.525 490.36 277.229 489.72C277.933 489.064 278.781 488.736 279.773 488.736C280.781 488.736 281.573 488.92 282.149 489.288C282.581 488.856 282.797 488.304 282.797 487.632C282.797 487.296 282.741 486.984 282.629 486.696C282.437 486.216 282.533 485.896 282.917 485.736C283.029 485.688 283.133 485.664 283.229 485.664ZM288.486 496.872H289.422C289.582 496.872 289.71 496.928 289.806 497.04C289.918 497.152 289.974 497.288 289.974 497.448C289.974 497.608 289.918 497.744 289.806 497.856C289.71 497.952 289.582 498 289.422 498H288.486C287.19 498 286.542 497.48 286.542 496.44V481.128H284.958C284.798 481.128 284.67 481.08 284.574 480.984C284.462 480.872 284.406 480.736 284.406 480.576C284.406 480.416 284.462 480.28 284.574 480.168C284.67 480.056 284.798 480 284.958 480H287.19C287.366 480 287.518 480.056 287.646 480.168C287.774 480.28 287.838 480.416 287.838 480.576V496.416C287.838 496.72 288.054 496.872 288.486 496.872ZM298.532 492.72C298.484 491.856 298.228 491.168 297.764 490.656C297.316 490.144 296.66 489.888 295.796 489.888C294.948 489.888 294.236 490.152 293.66 490.68C293.084 491.192 292.724 491.872 292.58 492.72H298.532ZM298.58 495.696C298.692 495.504 298.82 495.408 298.964 495.408C299.108 495.408 299.252 495.448 299.396 495.528C299.54 495.592 299.636 495.704 299.684 495.864C299.748 496.008 299.74 496.144 299.66 496.272C298.844 497.584 297.548 498.24 295.772 498.24C294.364 498.24 293.252 497.792 292.436 496.896C291.636 495.984 291.236 494.84 291.236 493.464C291.236 492.088 291.652 490.968 292.484 490.104C293.316 489.224 294.412 488.784 295.772 488.784C297.132 488.784 298.14 489.192 298.796 490.008C299.468 490.824 299.804 491.912 299.804 493.272C299.804 493.64 299.596 493.824 299.18 493.824L292.532 493.848C292.596 494.84 292.916 495.64 293.492 496.248C294.084 496.84 294.844 497.136 295.772 497.136C297.02 497.136 297.956 496.656 298.58 495.696Z" fill="black"/>
</g>
<defs>
<filter id="filter0_d" x="-4" y="0" width="504" height="657" filterUnits="userSpaceOnUse" color-interpolation-filters="sRGB">
<feFlood flood-opacity="0" result="BackgroundImageFix"/>
<feColorMatrix in="SourceAlpha" type="matrix" values="0 0 0 0 0 0 0 0 0 0 0 0 0 0 0 0 0 0 127 0" result="hardAlpha"/>
<feOffset dy="4"/>
<feGaussianBlur stdDeviation="2"/>
<feComposite in2="hardAlpha" operator="out"/>
<feColorMatrix type="matrix" values="0 0 0 0 0 0 0 0 0 0 0 0 0 0 0 0 0 0 0.25 0"/>
<feBlend mode="normal" in2="BackgroundImageFix" result="effect1_dropShadow"/>
<feBlend mode="normal" in="SourceGraphic" in2="effect1_dropShadow" result="shape"/>
</filter>
<filter id="filter1_d" x="150.077" y="545" width="229.617" height="59" filterUnits="userSpaceOnUse" color-interpolation-filters="sRGB">
<feFlood flood-opacity="0" result="BackgroundImageFix"/>
<feColorMatrix in="SourceAlpha" type="matrix" values="0 0 0 0 0 0 0 0 0 0 0 0 0 0 0 0 0 0 127 0" result="hardAlpha"/>
<feOffset dy="4"/>
<feGaussianBlur stdDeviation="2"/>
<feComposite in2="hardAlpha" operator="out"/>
<feColorMatrix type="matrix" values="0 0 0 0 0 0 0 0 0 0 0 0 0 0 0 0 0 0 0.25 0"/>
<feBlend mode="normal" in2="BackgroundImageFix" result="effect1_dropShadow"/>
<feBlend mode="normal" in="SourceGraphic" in2="effect1_dropShadow" result="shape"/>
</filter>
<filter id="filter2_d" x="144.8" y="354" width="229.617" height="59" filterUnits="userSpaceOnUse" color-interpolation-filters="sRGB">
<feFlood flood-opacity="0" result="BackgroundImageFix"/>
<feColorMatrix in="SourceAlpha" type="matrix" values="0 0 0 0 0 0 0 0 0 0 0 0 0 0 0 0 0 0 127 0" result="hardAlpha"/>
<feOffset dy="4"/>
<feGaussianBlur stdDeviation="2"/>
<feComposite in2="hardAlpha" operator="out"/>
<feColorMatrix type="matrix" values="0 0 0 0 0 0 0 0 0 0 0 0 0 0 0 0 0 0 0.25 0"/>
<feBlend mode="normal" in2="BackgroundImageFix" result="effect1_dropShadow"/>
<feBlend mode="normal" in="SourceGraphic" in2="effect1_dropShadow" result="shape"/>
</filter>
<filter id="filter3_i" x="82.3149" y="170" width="354.06" height="55.5" filterUnits="userSpaceOnUse" color-interpolation-filters="sRGB">
<feFlood flood-opacity="0" result="BackgroundImageFix"/>
<feBlend mode="normal" in="SourceGraphic" in2="BackgroundImageFix" result="shape"/>
<feColorMatrix in="SourceAlpha" type="matrix" values="0 0 0 0 0 0 0 0 0 0 0 0 0 0 0 0 0 0 127 0" result="hardAlpha"/>
<feOffset dy="4"/>
<feGaussianBlur stdDeviation="2"/>
<feComposite in2="hardAlpha" operator="arithmetic" k2="-1" k3="1"/>
<feColorMatrix type="matrix" values="0 0 0 0 0 0 0 0 0 0 0 0 0 0 0 0 0 0 0.25 0"/>
<feBlend mode="normal" in2="shape" result="effect1_innerShadow"/>
</filter>
<filter id="filter4_i" x="83.3702" y="262.5" width="351.949" height="52" filterUnits="userSpaceOnUse" color-interpolation-filters="sRGB">
<feFlood flood-opacity="0" result="BackgroundImageFix"/>
<feBlend mode="normal" in="SourceGraphic" in2="BackgroundImageFix" result="shape"/>
<feColorMatrix in="SourceAlpha" type="matrix" values="0 0 0 0 0 0 0 0 0 0 0 0 0 0 0 0 0 0 127 0" result="hardAlpha"/>
<feOffset dy="4"/>
<feGaussianBlur stdDeviation="2"/>
<feComposite in2="hardAlpha" operator="arithmetic" k2="-1" k3="1"/>
<feColorMatrix type="matrix" values="0 0 0 0 0 0 0 0 0 0 0 0 0 0 0 0 0 0 0.25 0"/>
<feBlend mode="normal" in2="shape" result="effect1_innerShadow"/>
</filter>
<filter id="filter5_d" x="150.077" y="466" width="229.617" height="59" filterUnits="userSpaceOnUse" color-interpolation-filters="sRGB">
<feFlood flood-opacity="0" result="BackgroundImageFix"/>
<feColorMatrix in="SourceAlpha" type="matrix" values="0 0 0 0 0 0 0 0 0 0 0 0 0 0 0 0 0 0 127 0" result="hardAlpha"/>
<feOffset dy="4"/>
<feGaussianBlur stdDeviation="2"/>
<feComposite in2="hardAlpha" operator="out"/>
<feColorMatrix type="matrix" values="0 0 0 0 0 0 0 0 0 0 0 0 0 0 0 0 0 0 0.25 0"/>
<feBlend mode="normal" in2="BackgroundImageFix" result="effect1_dropShadow"/>
<feBlend mode="normal" in="SourceGraphic" in2="effect1_dropShadow" result="shape"/>
</filter>
</defs>
</svg>
